<svg width="16" height="16" viewBox="0 0 16 16" fill="none" xmlns="http://www.w3.org/2000/svg">
<g clip-path="url(#clip0_40_243)">
<path d="M9.22125 11.0453C9.35894 11.1085 9.51405 11.1229 9.66105 11.0862C9.80804 11.0495 9.93814 10.9638 10.0299 10.8433L10.2666 10.5333C10.3908 10.3677 10.5518 10.2333 10.737 10.1407C10.9221 10.0481 11.1263 9.99992 11.3333 9.99992H13.3333C13.6869 9.99992 14.026 10.1404 14.2761 10.3904C14.5261 10.6405 14.6666 10.9796 14.6666 11.3333V13.3333C14.6666 13.6869 14.5261 14.026 14.2761 14.2761C14.026 14.5261 13.6869 14.6666 13.3333 14.6666C10.1507 14.6666 7.09841 13.4023 4.84797 11.1519C2.59753 8.90143 1.33325 5.84918 1.33325 2.66659C1.33325 2.31296 1.47373 1.97382 1.72378 1.72378C1.97382 1.47373 2.31296 1.33325 2.66659 1.33325H4.66659C5.02021 1.33325 5.35935 1.47373 5.60939 1.72378C5.85944 1.97382 5.99992 2.31296 5.99992 2.66659V4.66659C5.99992 4.87358 5.95173 5.07773 5.85915 5.26287C5.76658 5.44801 5.63218 5.60906 5.46658 5.73325L5.15458 5.96725C5.0322 6.0607 4.94593 6.19364 4.91045 6.34349C4.87496 6.49333 4.89244 6.65084 4.95992 6.78925C5.87104 8.63983 7.36953 10.1364 9.22125 11.0453Z" stroke="white" stroke-width="2" stroke-linecap="round" stroke-linejoin="round"/>
</g>
<defs>
<clipPath id="clip0_40_243">
<rect width="16" height="16" fill="white"/>
</clipPath>
</defs>
</svg>
