<svg width="25" height="25" viewBox="0 0 25 25" fill="none" xmlns="http://www.w3.org/2000/svg">
<mask id="mask0_66_61" style="mask-type:luminance" maskUnits="userSpaceOnUse" x="4" y="4" width="17" height="17">
<path d="M4.8999 4.83325H20.4666V20.3701H4.8999V4.83325Z" fill="white"/>
</mask>
<g mask="url(#mask0_66_61)">
<path d="M13.1173 20.3726H12.2684L12.1376 20.3471C11.8376 20.3088 11.5345 20.2864 11.2376 20.229C9.25269 19.8365 7.63472 18.8312 6.44761 17.2005C4.94767 15.1357 4.53921 12.8444 5.25724 10.3967C6.27847 6.90225 9.57821 4.62692 13.2098 4.85986C14.8981 4.97158 16.3947 5.57471 17.684 6.66611C19.1265 7.88519 20.0136 9.42868 20.3455 11.2966C20.3934 11.5775 20.4222 11.8647 20.4604 12.1487V13.0582L20.4317 13.221C20.3966 13.4986 20.3742 13.7826 20.32 14.0603C19.969 15.8537 19.0882 17.3441 17.7 18.5312C17.5697 18.6431 17.4359 18.7504 17.2983 18.8531C17.1608 18.9558 17.0199 19.0537 16.8757 19.1468C16.7314 19.2399 16.5842 19.328 16.4339 19.411C16.2837 19.4941 16.1307 19.5719 15.9752 19.6445C15.8196 19.7171 15.6618 19.7843 15.5016 19.8461C15.3415 19.9079 15.1794 19.9642 15.0154 20.0149C14.8514 20.0657 14.6858 20.1108 14.5188 20.1502C14.3517 20.1897 14.1835 20.2234 14.0141 20.2513C13.7173 20.3024 13.4173 20.3311 13.1173 20.3726ZM9.40269 8.87126L7.27729 7.82458C6.16675 9.09788 5.55724 10.6009 5.47104 12.3243H8.68465C8.69292 12.0287 8.71427 11.7341 8.74865 11.4405C8.78302 11.1469 8.83029 10.8554 8.89045 10.5659C8.95067 10.2765 9.02352 9.99027 9.10907 9.70726C9.19461 9.42425 9.29246 9.1456 9.40269 8.87126ZM18.1117 7.82458L15.9831 8.87126C16.4266 9.95954 16.6628 11.1179 16.7043 12.3243H19.9147C19.8285 10.6009 19.2222 9.09788 18.1117 7.82458ZM8.68465 12.8859H5.47104C5.55405 14.5326 6.11252 15.9814 7.16245 17.2515C7.50008 17.0237 7.85041 16.8174 8.21349 16.6327C8.57651 16.4479 8.94956 16.2862 9.3325 16.1474C9.13446 15.6256 8.98101 15.091 8.87228 14.5437C8.76356 13.9963 8.70106 13.4437 8.68465 12.8859ZM18.2585 17.2132C19.2765 15.975 19.8382 14.5262 19.9147 12.8859H16.7362C16.6628 13.4507 16.615 14.006 16.5097 14.5485C16.4043 15.091 16.232 15.6144 16.1012 16.1123L18.2585 17.2132ZM9.93563 8.99254C9.8256 9.25622 9.72801 9.52445 9.64279 9.79717C9.55757 10.0699 9.48511 10.346 9.42541 10.6254C9.36571 10.9048 9.31903 11.1864 9.28543 11.4701C9.25177 11.7539 9.23127 12.0386 9.22397 12.3243H12.4153V9.37549C11.9955 9.36435 11.5782 9.32672 11.1633 9.2626C10.7484 9.19853 10.3391 9.1085 9.93563 8.99254ZM15.4501 8.99254C14.6268 9.23187 13.8067 9.34678 12.9705 9.38187V12.3243H16.1618C16.1548 12.0386 16.1346 11.7538 16.1011 11.4701C16.0677 11.1863 16.021 10.9047 15.9613 10.6252C15.9016 10.3457 15.8291 10.0697 15.7438 9.79697C15.6583 9.52432 15.5605 9.25615 15.4501 8.99254ZM12.9705 12.8827V15.5634C13.4057 15.5759 13.8382 15.6163 14.2682 15.6847C14.6981 15.753 15.1219 15.8487 15.5395 15.9718C15.8905 15.19 16.2288 13.4539 16.1427 12.8827H12.9705ZM12.4121 15.5442V12.8827H9.22397C9.23739 13.4085 9.2952 13.9294 9.39754 14.4453C9.49989 14.9612 9.6452 15.4648 9.83355 15.9559C10.2739 15.8634 10.6919 15.7548 11.1132 15.6879C11.5345 15.6208 11.9749 15.5921 12.4121 15.5442ZM7.52944 17.6537C8.69422 18.8216 10.0792 19.5269 11.7483 19.7694C11.5162 19.5472 11.2952 19.3142 11.0854 19.0707C10.8756 18.8272 10.6779 18.5743 10.4923 18.3119C10.3068 18.0495 10.1342 17.7788 9.97456 17.4998C9.81493 17.2209 9.66896 16.9349 9.53674 16.642C9.18289 16.7692 8.83804 16.9174 8.50223 17.0866C8.16642 17.2559 7.8422 17.4449 7.52944 17.6537ZM13.6407 19.7694C15.3065 19.5269 16.6947 18.8248 17.8595 17.6537C17.5471 17.4438 17.2227 17.2545 16.8862 17.0858C16.5498 16.917 16.2041 16.7702 15.849 16.6452C15.7172 16.9379 15.5716 17.2237 15.4123 17.5024C15.253 17.7812 15.0807 18.0516 14.8954 18.3138C14.7101 18.5759 14.5126 18.8285 14.3031 19.0718C14.0934 19.3149 13.8727 19.5475 13.6407 19.7694ZM15.3352 16.4761C14.9521 16.362 14.5632 16.2735 14.1684 16.2104C13.7737 16.1474 13.3765 16.1104 12.9769 16.0995V19.6482C13.227 19.4295 13.4647 19.1981 13.6901 18.9541C13.9155 18.71 14.1273 18.4547 14.3255 18.1881C14.5237 17.9215 14.7072 17.6451 14.876 17.359C15.0447 17.0728 15.1979 16.7785 15.3352 16.4761ZM10.0505 16.4761C10.1884 16.7787 10.3421 17.073 10.5113 17.3593C10.6807 17.6455 10.8647 17.9218 11.0634 18.1884C11.2622 18.455 11.4745 18.7104 11.7005 18.9543C11.9264 19.1983 12.1647 19.4296 12.4153 19.6482V16.0995C12.0147 16.1112 11.6165 16.1486 11.2208 16.2116C10.825 16.2746 10.4349 16.3628 10.0505 16.4761ZM9.60054 8.32236C9.92606 7.80218 10.2133 7.28525 10.558 6.80973C10.9026 6.33421 11.3111 5.89385 11.6876 5.44704C10.1622 5.66833 8.82931 6.31722 7.68901 7.39372C8.29006 7.77757 8.9273 8.08714 9.60054 8.32236ZM13.6407 5.43747C14.5279 6.29912 15.2236 7.2501 15.7438 8.32555C16.1682 8.22666 17.2532 7.70648 17.6936 7.39053C16.5607 6.32145 15.23 5.67047 13.6407 5.43747ZM12.4153 5.55557C11.4579 6.40127 10.7143 7.3682 10.1654 8.4915C10.7047 8.67978 12.0929 8.88089 12.4153 8.82021V5.55557ZM15.2268 8.49469C15.0901 8.21553 14.9397 7.94378 14.7759 7.67959C14.612 7.41546 14.4353 7.16006 14.2459 6.91357C14.0565 6.66709 13.8552 6.43063 13.6421 6.20426C13.429 5.9779 13.2052 5.76273 12.9705 5.55876V8.84254C13.3523 8.83096 13.7319 8.79606 14.1093 8.73786C14.4868 8.67965 14.8593 8.5986 15.2268 8.49469Z" fill="white"/>
</g>
<mask id="mask1_66_61" style="mask-type:luminance" maskUnits="userSpaceOnUse" x="7" y="17" width="1" height="2">
<path d="M7.52686 17.9277H7.77686V18.1027H7.52686V17.9277Z" fill="white"/>
</mask>
<g mask="url(#mask1_66_61)">
<path d="M7.55283 18.0953C7.54932 18.0953 7.54587 18.0943 7.543 18.0924L7.61273 18.0209L7.63525 18.0437C7.6389 18.0475 7.64385 18.0496 7.64912 18.0496C7.65439 18.0496 7.65934 18.0475 7.66305 18.0437L7.68558 18.0209L7.7555 18.0924C7.75264 18.0943 7.74919 18.0953 7.74567 18.0953H7.55283ZM7.53747 18.0868C7.53571 18.0839 7.53473 18.0806 7.53473 18.0771V17.954C7.53473 17.9505 7.53571 17.9472 7.53747 17.9443L7.60726 18.0153L7.53747 18.0868ZM7.55283 17.9359H7.74567C7.74919 17.9359 7.75257 17.9368 7.7555 17.9387L7.68285 18.0125L7.65745 18.0383C7.65524 18.0405 7.65231 18.0417 7.64912 18.0417C7.646 18.0417 7.643 18.0405 7.64085 18.0382L7.61553 18.0125L7.543 17.9387C7.54593 17.9368 7.54932 17.9359 7.55283 17.9359ZM7.69111 18.0153L7.76097 17.9443C7.76279 17.9472 7.76377 17.9505 7.76377 17.954V18.0771C7.76377 18.0806 7.76279 18.0839 7.76104 18.0868L7.69111 18.0153ZM7.7641 17.9357C7.75915 17.9307 7.75264 17.928 7.74567 17.928H7.55283C7.54587 17.928 7.53936 17.9307 7.53441 17.9357C7.52952 17.9405 7.52686 17.9471 7.52686 17.954V18.0771C7.52686 18.084 7.52952 18.0905 7.53441 18.0954C7.53441 18.0954 7.53441 18.0954 7.53441 18.0955H7.53447C7.53936 18.1004 7.54587 18.1031 7.55283 18.1031H7.74567C7.75264 18.1031 7.75915 18.1004 7.76403 18.0955C7.76403 18.0955 7.76403 18.0955 7.7641 18.0955C7.7641 18.0954 7.7641 18.0954 7.7641 18.0954C7.76898 18.0905 7.77165 18.084 7.77165 18.0771V17.954C7.77165 17.9471 7.76891 17.9405 7.7641 17.9357Z" fill="white"/>
</g>
</svg>
